<svg width="24" height="25" viewBox="0 0 24 25" fill="none" xmlns="http://www.w3.org/2000/svg">
<path d="M23.5134 13.6145L10.9055 1.0303C10.239 0.431821 9.3873 0.0790912 8.49207 0.0307617L2.00285 0.0307617C1.47252 0.0329935 0.964722 0.245075 0.59084 0.62049C0.214717 0.993668 0.00223597 1.50051 0 2.02984L0 8.51685C0.0341465 9.41357 0.389479 10.2683 1.00142 10.9257L13.6094 23.4999C13.7601 23.6601 13.9414 23.7886 14.1426 23.8779C14.3438 23.9671 14.5609 24.0154 14.781 24.0197C14.9007 24.0344 15.0218 24.0344 15.1415 24.0197C15.4134 23.9416 15.6604 23.7947 15.8586 23.5933C16.0569 23.392 16.1997 23.1429 16.2731 22.8702L17.7252 18.0225C17.7514 17.9542 17.7916 17.8922 17.8434 17.8406C17.8952 17.7889 17.9573 17.7487 18.0256 17.7226L22.8024 16.2733C23.0794 16.2099 23.3335 16.0713 23.5366 15.8729C23.7397 15.6745 23.8839 15.4239 23.9533 15.1489C24.0227 14.8738 24.0146 14.585 23.9299 14.3142C23.8452 14.0434 23.6872 13.8013 23.4734 13.6145H23.5134ZM6.00854 7.51731C5.71061 7.51929 5.41881 7.43278 5.17026 7.2688C4.9217 7.10482 4.72762 6.87076 4.61269 6.59639C4.49776 6.32203 4.46716 6.01974 4.52481 5.72798C4.58245 5.43621 4.72571 5.16815 4.93639 4.95786C5.14707 4.74758 5.41564 4.60458 5.70796 4.54705C6.00027 4.48952 6.30313 4.52005 6.57801 4.63477C6.8529 4.74948 7.08739 4.9432 7.25169 5.19129C7.41598 5.43937 7.50265 5.73062 7.50067 6.028C7.49804 6.42218 7.33999 6.79947 7.06073 7.07821C6.78147 7.35694 6.40347 7.51469 6.00854 7.51731Z" fill="#4E2C62"/>
</svg>
