<svg width="24" height="25" viewBox="0 0 24 25" fill="none" xmlns="http://www.w3.org/2000/svg">
<path d="M16.0903 8.52874L16.2373 7.79333L15.5019 7.94048L11.0703 8.82728L11.0701 8.82731C10.5092 8.93974 9.99396 9.21559 9.5894 9.62016C9.18483 10.0247 8.90898 10.5399 8.79655 11.1009L8.79652 11.1011L7.90972 15.5327L7.76252 16.2682L8.49811 16.121L12.9296 15.2343C13.4908 15.1221 14.0064 14.8464 14.4112 14.4418C14.816 14.0372 15.0921 13.5218 15.2046 12.9607L15.2047 12.9603L16.0903 8.52874ZM0.5 12.0308C0.5 5.6793 5.64854 0.530762 12 0.530762C18.3515 0.530762 23.5 5.6793 23.5 12.0308C23.5 18.3822 18.3515 23.5308 12 23.5308C5.64854 23.5308 0.5 18.3822 0.5 12.0308Z" stroke="#11375C"/>
</svg>
