<svg width="24" height="25" viewBox="0 0 24 25" fill="none" xmlns="http://www.w3.org/2000/svg">
<path fill-rule="evenodd" clip-rule="evenodd" d="M0 12.0154C0 5.38778 5.3724 0.0153809 12 0.0153809C18.6276 0.0153809 24 5.38778 24 12.0154C24 18.643 18.6276 24.0154 12 24.0154C5.3724 24.0154 0 18.643 0 12.0154ZM15.6 8.41538L11.1684 9.30218C10.7041 9.39522 10.2778 9.62352 9.94295 9.95833C9.60814 10.2931 9.37984 10.7195 9.2868 11.1838L8.4 15.6154L12.8316 14.7286C13.2961 14.6358 13.7227 14.4076 14.0578 14.0727C14.3928 13.7379 14.6213 13.3114 14.7144 12.847L15.6 8.41538Z" fill="#4E2C62"/>
</svg>
