<svg width="22" height="23" viewBox="0 0 22 23" fill="none" xmlns="http://www.w3.org/2000/svg">
<path d="M11.5072 18.9337C11.1942 18.7494 10.8058 18.7494 10.4928 18.9337L5.48251 21.8824C4.74213 22.3182 3.83318 21.6791 3.99268 20.8349L5.13998 14.7629C5.20228 14.4332 5.09507 14.0943 4.85451 13.8603L0.492823 9.61909C-0.108533 9.03435 0.233884 8.01363 1.06622 7.90984L6.87677 7.18529C7.2264 7.14169 7.52729 6.91732 7.66881 6.59465L10.0842 1.08786C10.4341 0.290098 11.5659 0.290096 11.9158 1.08785L14.3312 6.59465C14.4727 6.91731 14.7736 7.14169 15.1232 7.18529L20.9338 7.90984C21.7661 8.01363 22.1085 9.03435 21.5072 9.61909L17.1455 13.8603C16.9049 14.0943 16.7977 14.4332 16.86 14.7629L18.0073 20.8349C18.1668 21.6791 17.2579 22.3182 16.5175 21.8824L11.5072 18.9337Z" fill="#F1C51E"/>
</svg>
