<svg width="24" height="24" viewBox="0 0 24 24" fill="none" xmlns="http://www.w3.org/2000/svg">
<path d="M3.24091 3.18268C7.56212 -1.06089 14.5682 -1.06089 18.8894 3.18268C23.0647 7.28291 23.2057 13.8447 19.3125 18.1112L23.926 22.6424C24.0234 22.738 24.0248 22.8945 23.9291 22.9919C23.9281 22.993 23.9271 22.994 23.926 22.995L22.9748 23.9292C22.8786 24.0236 22.7245 24.0236 22.6283 23.9292L17.9726 19.3566C13.628 22.774 7.26836 22.5051 3.24091 18.55C-1.0803 14.3064 -1.0803 7.42625 3.24091 3.18268ZM4.54495 4.46329C0.94394 7.99959 0.94394 13.7331 4.54495 17.2694C8.14596 20.8057 13.9843 20.8057 17.5854 17.2694C21.1864 13.7331 21.1864 7.99959 17.5854 4.46329C13.9843 0.926979 8.14596 0.926979 4.54495 4.46329Z" fill="#B9B9B9"/>
</svg>
