<svg width="18" height="21" viewBox="0 0 18 21" fill="none" xmlns="http://www.w3.org/2000/svg">
<path d="M9 0C13.9706 0 18 4.03942 18 9.02229C18 11.2497 17.1949 13.2885 15.8604 14.8624L15.6125 15.1489C14.6104 16.2868 12.8654 18.0516 10.3775 20.4434C9.63216 21.16 8.47749 21.1846 7.70397 20.5175L7.62259 20.4434L6.57337 19.429C4.43784 17.3517 2.96022 15.8299 2.1405 14.8634C0.805513 13.2895 0 11.2502 0 9.02229C0 4.03942 4.02944 0 9 0ZM9 1.5C4.85468 1.5 1.5 4.86977 1.5 9.01931C1.5 10.8265 2.13619 12.5317 3.27867 13.8814L3.43321 14.0614C3.99137 14.7033 4.82726 15.583 5.93662 16.6954L6.27763 17.036C6.85964 17.6154 7.50992 18.2528 8.22793 18.9476L8.65569 19.3606C8.84866 19.5465 9.15142 19.5465 9.34441 19.3606L10.1593 18.5722C12.3858 16.4083 13.9123 14.8375 14.7221 13.8805C15.8641 12.5309 16.5 10.8261 16.5 9.01931C16.5 4.86977 13.1453 1.5 9 1.5ZM9 5.25C11.2091 5.25 13 7.04086 13 9.25C13 11.4591 11.2091 13.25 9 13.25C6.79086 13.25 5 11.4591 5 9.25C5 7.04086 6.79086 5.25 9 5.25ZM9 6.75C7.61929 6.75 6.5 7.86929 6.5 9.25C6.5 10.6307 7.61929 11.75 9 11.75C10.3807 11.75 11.5 10.6307 11.5 9.25C11.5 7.86929 10.3807 6.75 9 6.75Z" fill="#0D2234"/>
</svg>
