<svg width="249" height="59" viewBox="0 0 249 59" fill="none" xmlns="http://www.w3.org/2000/svg">
<path d="M0 47.3123L5.28131 43.9211L5.61487 44.3103C5.05895 45.6445 4.78098 47.0899 4.78098 48.6465C4.78098 50.2587 5.05895 51.7041 5.61487 53.0939C6.1708 54.4837 6.9491 55.5956 8.06095 56.5407C9.17281 57.4857 10.507 57.9305 12.1748 57.9305C13.1755 57.9305 14.065 57.7081 14.9545 57.2078C15.8439 56.763 16.5666 56.0959 17.1782 55.3732C17.7897 54.5949 18.29 53.7054 18.6792 52.7048C19.0127 51.7041 19.2351 50.6478 19.2351 49.536C19.2351 47.8682 18.7903 46.3672 17.9565 45.0886C17.1226 43.8099 16.0663 42.6425 14.7877 41.5862C13.509 40.5299 12.1192 39.4737 10.6738 38.473C9.22841 37.4723 7.83857 36.4161 6.55994 35.3042C5.28131 34.1924 4.22505 32.9693 3.39116 31.5795C2.55727 30.1897 2.11252 28.6331 2.11252 26.7429C2.11252 24.6304 2.55727 22.8514 3.44676 21.3504C4.33624 19.8494 5.3925 18.6264 6.72673 17.6813C8.00536 16.7362 9.39518 16.0691 10.8962 15.6244C12.3972 15.1796 13.7314 14.9573 14.9545 14.9573C16.8446 14.9573 18.568 15.2908 20.1246 15.9579C21.6812 16.6251 22.9598 17.4034 24.0717 18.3484C25.1835 19.2935 26.0174 20.2386 26.6289 21.2948C27.2405 22.3511 27.5184 23.2406 27.5184 23.9633L23.7937 29.8561L23.1822 29.6338C23.5157 28.0772 23.6269 26.5206 23.5157 24.8528C23.4045 23.2406 23.071 21.7396 22.4595 20.4054C21.9035 19.0711 21.0697 17.9593 19.9578 17.0698C18.9015 16.1803 17.5673 15.7912 15.9551 15.7912C15.0656 15.7912 14.2317 16.0135 13.3423 16.4583C12.4528 16.903 11.6745 17.5145 10.9518 18.2928C10.2847 19.0711 9.67315 20.0718 9.284 21.1837C8.83926 22.3511 8.61688 23.6298 8.61688 25.0196C8.61688 26.5206 9.06161 27.8548 9.89551 28.9667C10.7294 30.0785 11.7857 31.1348 13.0643 32.1354C14.3429 33.1361 15.7328 34.0812 17.2338 35.0819C18.7348 36.0825 20.1246 37.1388 21.4032 38.3618C22.6819 39.5849 23.7381 40.9191 24.572 42.4757C25.4059 44.0323 25.8506 45.8669 25.8506 47.9794C25.8506 49.8695 25.4615 51.4817 24.6276 52.8716C23.7937 54.2614 22.7374 55.4288 21.4588 56.3183C20.1802 57.2078 18.7904 57.8749 17.2894 58.3196C15.7884 58.7644 14.3429 58.9868 12.9531 58.9868C11.3965 58.9868 9.89551 58.7088 8.50569 58.1529C7.11587 57.5969 5.83724 56.8186 4.66979 55.7624C3.50234 54.7061 2.55727 53.4831 1.77898 52.0932C0.889491 50.6478 0.333557 49.0356 0 47.3123Z" fill="#673A73"/>
<path d="M35.0235 53.4274V20.5165C35.0235 19.4046 34.7455 18.5151 34.2452 17.7368C33.7448 16.9585 33.0777 16.5138 32.2438 16.347H44.5854C43.7515 16.5138 43.0844 16.9585 42.5841 17.7368C42.0838 18.5151 41.8058 19.4046 41.8058 20.5165V36.3604C42.4173 32.5245 43.2512 29.3001 44.4186 26.5761C45.5861 23.9076 46.8647 21.6839 48.3657 19.9605C49.8667 18.2371 51.4233 17.0141 53.0911 16.2358C54.7589 15.4575 56.4267 15.0684 58.0945 15.0684C58.7616 15.0684 59.4287 15.124 60.0402 15.2907C60.6517 15.4575 61.1521 15.6243 61.5968 15.7911V21.7951C60.2626 20.6832 59.1507 19.9049 58.1501 19.4602C57.1494 18.9599 56.0931 18.7375 54.9813 18.7375C53.3135 18.7375 52.0349 19.2934 51.1454 20.4053C50.2559 21.5171 49.8112 22.9625 49.8112 24.6859C49.8112 26.4649 50.0891 28.0771 50.7006 29.4113C51.2566 30.8011 51.9237 32.0797 52.702 33.2472L65.1548 53.2606C65.9887 54.5948 66.9337 55.6511 67.8232 56.3738C68.7683 57.0965 69.6578 57.4856 70.4361 57.5968H56.9826C57.8165 57.4856 58.3168 57.0409 58.5392 56.207C58.7616 55.4287 58.5392 54.4836 57.8721 53.4274L47.643 37.1387C46.9759 36.0268 46.4756 34.915 46.1976 33.8587C45.9197 32.8025 45.7529 31.8018 45.6973 30.8011C45.6973 29.856 45.7529 28.9666 45.9197 28.1883C46.0864 27.41 46.2532 26.6873 46.4756 26.0757C45.8641 26.854 45.3081 28.0771 44.6966 29.6337C44.1407 31.2459 43.6404 32.9692 43.1956 34.8594C42.8065 36.7495 42.4729 38.6953 42.1949 40.641C41.917 42.5868 41.8058 44.2546 41.8058 45.7V53.3718C41.8058 54.4836 42.0838 55.3731 42.5841 56.207C43.0844 56.9853 43.7515 57.4301 44.5854 57.5412H32.2438C33.0777 57.4301 33.7448 56.9853 34.2452 56.207C34.7455 55.4843 35.0235 54.5392 35.0235 53.4274Z" fill="#673A73"/>
<path d="M78.6081 15.124C77.7742 15.2907 77.2739 15.7355 77.1071 16.4582C76.9404 17.2365 77.1627 18.126 77.6631 19.2378L86.3355 37.8058C86.6691 36.138 87.225 34.5814 87.8921 33.0804C88.5592 31.5794 89.3375 30.0784 90.1714 28.5774C91.0053 27.0764 91.8392 25.5754 92.7287 24.0744C93.6182 22.5734 94.3965 21.0168 95.1192 19.4046C95.6195 18.126 95.7307 17.1253 95.4528 16.4026C95.1748 15.6799 94.6189 15.2351 93.785 15.0684H100.79C99.9558 15.2351 99.1775 15.6799 98.3992 16.4026C97.6209 17.1253 97.0094 18.0148 96.5646 19.071C95.7307 21.128 94.73 23.1293 93.6738 24.9639C92.6175 26.7984 91.5613 28.633 90.6162 30.3564C89.6711 32.0797 88.8928 33.8031 88.2257 35.5265C87.6142 37.2499 87.2806 38.9732 87.2806 40.7522V53.3162C87.2806 54.428 87.5586 55.3731 88.0589 56.207C88.5592 57.0409 89.282 57.4856 90.1158 57.5968H77.3851C78.2746 57.4856 78.9417 57.0409 79.442 56.207C79.9424 55.3731 80.2203 54.428 80.2203 53.3162V40.8078L70.714 19.349C70.158 18.126 69.4353 17.1253 68.5458 16.4026C67.6564 15.6799 66.8225 15.2351 65.9886 15.124H78.6081Z" fill="#673A73"/>
<path d="M120.358 36.3048C120.358 33.3584 120.803 30.6343 121.637 28.0215C122.526 25.4642 123.694 23.1849 125.195 21.2947C126.696 19.349 128.475 17.848 130.476 16.7361C132.533 15.6243 134.701 15.0684 136.981 15.0684C139.26 15.0684 141.428 15.6243 143.429 16.7361C145.486 17.848 147.21 19.349 148.766 21.2947C150.267 23.2405 151.49 25.4642 152.38 28.0215C153.269 30.5787 153.658 33.3584 153.658 36.3048C153.658 39.2512 153.214 41.9753 152.38 44.5881C151.49 47.1454 150.323 49.4247 148.766 51.3148C147.265 53.2606 145.486 54.7616 143.429 55.8735C141.372 56.9853 139.26 57.5412 136.981 57.5412C134.646 57.5412 132.478 56.9853 130.476 55.8735C128.419 54.7616 126.696 53.2606 125.195 51.3148C123.694 49.3691 122.526 47.1454 121.637 44.5881C120.747 41.8641 120.358 39.2512 120.358 36.3048ZM127.474 37.917C127.919 40.641 128.642 43.1427 129.531 45.4776C130.421 47.8125 131.477 49.8139 132.644 51.4816C133.812 53.1494 135.09 54.3724 136.369 55.2063C137.703 56.0402 138.982 56.3738 140.316 56.1514C141.595 55.9291 142.762 55.2063 143.763 53.9833C144.764 52.7603 145.542 51.1481 146.098 49.2023C146.654 47.2566 146.987 45.0329 147.098 42.5312C147.21 40.0295 147.043 37.4167 146.543 34.6926C146.098 31.913 145.375 29.4113 144.486 27.0764C143.596 24.7415 142.54 22.7958 141.372 21.128C140.205 19.4602 138.926 18.2371 137.592 17.4033C136.258 16.5694 134.924 16.2358 133.645 16.4582C132.366 16.6805 131.199 17.4033 130.198 18.6263C129.198 19.8493 128.419 21.4615 127.863 23.4073C127.307 25.353 126.974 27.5767 126.863 30.0784C126.807 32.5245 126.974 35.1929 127.474 37.917Z" fill="#673A73"/>
<path d="M159.551 15.1239H173.394C179.287 15.1239 183.901 16.069 187.181 17.9591C190.461 19.8493 192.073 22.7401 192.073 26.6316C192.073 28.9665 191.517 30.9122 190.405 32.4132C189.293 33.9143 187.904 35.1373 186.236 36.1936C184.568 37.1942 182.733 38.0837 180.788 38.862C178.842 39.6403 177.007 40.4186 175.34 41.3081C173.672 42.1976 172.282 43.2538 171.17 44.4213C170.058 45.6443 169.502 47.2009 169.502 49.0911V53.3161C169.502 54.428 169.78 55.3731 170.281 56.207C170.781 57.0409 171.504 57.4856 172.338 57.5968H159.551C160.385 57.4856 161.108 57.0409 161.608 56.207C162.109 55.3731 162.386 54.428 162.386 53.3161V19.4045C162.386 18.2927 162.109 17.3476 161.608 16.5137C161.052 15.7354 160.385 15.2907 159.551 15.1239ZM169.447 45.144C169.947 43.8654 170.67 42.7535 171.615 41.7528C172.56 40.7522 173.616 39.8627 174.728 38.9732C175.84 38.0837 177.007 37.2498 178.119 36.4159C179.287 35.582 180.343 34.6926 181.288 33.6919C182.233 32.6912 183.011 31.5794 183.623 30.3563C184.234 29.1333 184.512 27.6879 184.512 26.0757C184.512 24.2967 184.234 22.7957 183.679 21.5727C183.123 20.3496 182.344 19.3489 181.399 18.5707C180.454 17.7924 179.287 17.2364 178.008 16.9029C176.729 16.5693 175.34 16.4025 173.839 16.4025H169.502V45.144H169.447Z" fill="#673A73"/>
<path d="M194.964 15.1239H207.695C206.861 15.2907 206.138 15.7354 205.638 16.5137C205.137 17.292 204.859 18.2371 204.859 19.4045V53.3161C204.859 54.428 205.137 55.3731 205.638 56.207C206.138 57.0409 206.861 57.4856 207.695 57.5968H194.964C195.798 57.4856 196.52 57.0409 197.021 56.207C197.521 55.3731 197.799 54.428 197.799 53.3161V19.4045C197.799 18.2927 197.521 17.3476 197.021 16.5137C196.465 15.7354 195.798 15.2907 194.964 15.1239Z" fill="#673A73"/>
<path d="M213.309 54.0388L223.816 20.3496C224.428 18.2927 225.206 16.8473 226.096 16.1802C226.985 15.4575 227.819 15.1239 228.542 15.1239C229.654 15.1239 230.71 15.5131 231.655 16.2358C232.6 16.9585 233.434 18.2927 234.101 20.294L244.775 53.3161C245.164 54.428 245.776 55.3731 246.554 56.207C247.332 57.0409 248.166 57.4856 249 57.5968H236.269C237.103 57.4856 237.659 57.0408 237.937 56.2625C238.215 55.4842 238.104 54.4836 237.715 53.3161L235.213 45.5887C234.768 44.1989 234.212 43.0315 233.656 42.142C233.1 41.2525 232.489 40.5298 231.877 39.9739C231.266 39.4179 230.599 39.0844 229.876 38.862C229.209 38.6396 228.486 38.5285 227.708 38.5285C226.652 38.5285 225.484 38.862 224.261 39.5291C223.038 40.1962 221.815 41.0857 220.648 42.2532C219.48 43.4206 218.424 44.866 217.423 46.5894C216.423 48.3128 215.644 50.2029 214.977 52.2599L214.588 53.5385C214.143 54.8727 214.032 55.8734 214.199 56.5405C214.366 57.152 214.866 57.5412 215.756 57.6524H209.696C210.53 57.5412 211.253 57.2076 211.808 56.7073C212.364 56.0958 212.865 55.2619 213.309 54.0388ZM227.764 37.5834C228.153 37.5834 228.597 37.639 229.042 37.6946C229.543 37.7502 230.043 37.8613 230.543 38.0837C231.044 38.2505 231.599 38.5285 232.1 38.9176C232.6 39.2512 233.045 39.7515 233.49 40.3074L227.93 23.0181C227.597 22.1286 227.319 21.4059 227.041 20.7944C226.763 20.2384 226.429 19.9049 226.04 19.9049C225.707 19.9049 225.429 20.0717 225.206 20.4608C224.928 20.85 224.595 21.6838 224.206 23.0181L217.145 45.5331C218.202 43.8654 219.202 42.5311 220.259 41.4749C221.315 40.4186 222.315 39.6403 223.261 39.0288C224.206 38.4729 225.095 38.0837 225.873 37.8613C226.596 37.6946 227.263 37.5834 227.764 37.5834Z" fill="#673A73"/>
<path d="M112.186 55.8735C111.63 54.8172 111.408 53.5942 111.408 52.1487L109.851 5.6176C109.24 5.50642 106.071 5.67319 105.682 5.72879L104.181 52.1487C104.181 53.5942 103.903 54.8172 103.402 55.8735C102.847 56.9297 102.179 57.4856 101.29 57.6524H114.354C113.409 57.4856 112.742 56.8741 112.186 55.8735Z" fill="#673A73"/>
<path d="M139.705 0.947909C137.536 2.83806 133.812 4.45025 130.254 5.17295C127.863 5.67329 125.918 5.67329 125.139 5.6177C123.082 5.5621 121.526 5.33974 118.579 4.56144C115.466 3.72755 112.742 3.11602 110.518 2.67128C108.406 2.17094 106.238 1.67061 104.125 1.22587C101.346 0.614352 98.288 0.225198 94.4521 0.447569C91.1165 0.614347 88.3369 1.28146 86.5023 1.83739C85.7796 2.11535 85.0013 2.5045 84.1674 3.00484C82.9444 3.72755 82.0549 4.61703 80.1648 6.3404C80.0536 6.45159 78.9973 7.45226 77.6631 8.84208C77.3851 9.17564 76.6624 9.95393 76.718 9.95393C76.7736 10.0095 77.6075 9.23123 77.8855 9.00886C80.0536 7.11871 83.7783 5.50651 87.3362 4.78381C89.7267 4.28347 91.6725 4.28347 92.4507 4.33906C94.5077 4.39466 96.0643 4.61703 99.0107 5.39533C102.124 6.22922 104.848 6.84074 107.072 7.28548C109.184 7.78582 111.352 8.28615 113.465 8.7309C116.244 9.34242 119.302 9.73156 123.138 9.50919C126.474 9.34241 129.253 8.6753 131.088 8.11937C131.81 7.84141 132.589 7.45226 133.423 6.95193C134.646 6.22922 135.535 5.33974 137.425 3.61636C137.536 3.50518 138.593 2.50451 139.927 1.11469C140.205 0.781132 140.928 0.00283339 140.872 0.00283339C140.816 -0.0527594 139.983 0.725538 139.705 0.947909Z" fill="#673A73"/>
</svg>
