<svg width="24" height="24" viewBox="0 0 24 24" fill="none" xmlns="http://www.w3.org/2000/svg">
<g clip-path="url(#clip0_3_355)">
<path d="M24 4.30762H0V19.6922H24V4.30762Z" fill="#16366F"/>
<path d="M13.8155 11.9999C13.8155 15.0504 11.3426 17.523 8.29212 17.523C5.24166 17.523 2.76904 15.0503 2.76904 11.9999C2.76904 8.94964 5.24172 6.47681 8.29212 6.47681C11.3425 6.47681 13.8155 8.94973 13.8155 11.9999Z" fill="#D9222A"/>
<path d="M15.7076 6.47681C14.2805 6.47681 12.9801 7.01822 11.9999 7.90653C11.8002 8.08773 11.6138 8.28305 11.4422 8.49102H12.5581C12.7109 8.67678 12.8515 8.87219 12.9791 9.07604H11.0211C10.9034 9.26438 10.7971 9.4597 10.703 9.6609H13.2972C13.3862 9.85121 13.4643 10.0464 13.531 10.2456H10.4691C10.4048 10.4375 10.3512 10.6327 10.3086 10.8305H13.6914C13.7741 11.2148 13.8158 11.6069 13.8157 12C13.8157 12.6134 13.7156 13.2035 13.531 13.7545H10.4691C10.5356 13.9538 10.6137 14.1491 10.7027 14.3394H13.2971C13.2028 14.5406 13.0965 14.736 12.9787 14.9244H11.0211C11.1489 15.1284 11.2897 15.3238 11.4421 15.5089H12.5578C12.3864 15.7173 12.1999 15.9128 11.9999 16.0939C12.9802 16.9821 14.2805 17.5232 15.7076 17.5232C18.758 17.5232 21.231 15.0506 21.231 12.0002C21.231 8.95001 18.7581 6.47708 15.7076 6.47708" fill="#EE9F2D"/>
<path d="M20.495 15.0788C20.495 14.9803 20.5747 14.9003 20.6733 14.9003C20.7719 14.9003 20.8517 14.9803 20.8517 15.0788C20.8517 15.1772 20.7719 15.2572 20.6733 15.2572C20.5748 15.2572 20.495 15.1773 20.495 15.0788ZM20.6733 15.2144C20.7483 15.2144 20.8089 15.1537 20.809 15.0788C20.809 15.0039 20.7483 14.9433 20.6735 14.9433H20.6733C20.5986 14.9432 20.5379 15.0037 20.5378 15.0784V15.0788C20.5377 15.1537 20.5983 15.2144 20.6732 15.2145C20.6732 15.2144 20.6733 15.2144 20.6733 15.2144ZM20.6492 15.1572H20.6127V15.0005H20.6788C20.6927 15.0005 20.7067 15.0005 20.719 15.0083C20.7317 15.0168 20.7388 15.032 20.7388 15.0476C20.7388 15.0651 20.7285 15.0816 20.7117 15.088L20.7405 15.1572H20.7L20.676 15.0952H20.6493L20.6492 15.1572ZM20.6492 15.0683H20.6695C20.6771 15.0683 20.685 15.0689 20.6918 15.0652C20.6978 15.0614 20.7009 15.0542 20.7009 15.0472C20.7009 15.0412 20.6972 15.0343 20.692 15.0314C20.6857 15.0273 20.6755 15.0282 20.6687 15.0282H20.6492V15.0683ZM7.00309 12.6048C6.94016 12.5975 6.91247 12.5955 6.86924 12.5955C6.52939 12.5955 6.35733 12.7121 6.35733 12.9422C6.35733 13.0841 6.44133 13.1744 6.57232 13.1744C6.81656 13.1744 6.99259 12.9418 7.00309 12.6048ZM7.43912 13.6201H6.94232L6.95373 13.3839C6.80219 13.5706 6.60001 13.6593 6.32527 13.6593C6.00029 13.6593 5.77746 13.4054 5.77746 13.0368C5.77746 12.4822 6.16502 12.1587 6.83029 12.1587C6.89822 12.1587 6.98539 12.1648 7.07462 12.1762C7.09324 12.1011 7.0981 12.0689 7.0981 12.0285C7.0981 11.8775 6.99361 11.8212 6.71349 11.8212C6.42016 11.8178 6.17822 11.891 6.07887 11.9238C6.08515 11.8859 6.16195 11.4112 6.16195 11.4112C6.46078 11.3236 6.65786 11.2907 6.87964 11.2907C7.3945 11.2907 7.66721 11.5218 7.66672 11.9587C7.6677 12.0758 7.64835 12.2203 7.6181 12.4102C7.56604 12.7403 7.45441 13.4476 7.43912 13.6201ZM5.52656 13.6201H4.92693L5.27041 11.4663L4.50349 13.6201H4.09487L4.04441 11.4786L3.68336 13.6201H3.12207L3.59093 10.8184H4.45309L4.50539 12.3866L5.0313 10.8184H5.99029L5.52656 13.6201ZM16.449 12.6048C16.3863 12.5975 16.3585 12.5955 16.3154 12.5955C15.9757 12.5955 15.8036 12.7121 15.8036 12.9422C15.8036 13.0841 15.8875 13.1744 16.0185 13.1744C16.2627 13.1744 16.4389 12.9418 16.449 12.6048ZM16.8854 13.6201H16.3887L16.3999 13.3839C16.2483 13.5706 16.046 13.6593 15.7716 13.6593C15.4465 13.6593 15.2239 13.4054 15.2239 13.0368C15.2239 12.4822 15.6112 12.1587 16.2766 12.1587C16.3445 12.1587 16.4315 12.1648 16.5207 12.1762C16.5393 12.1011 16.5442 12.0689 16.5442 12.0285C16.5442 11.8775 16.4398 11.8212 16.1597 11.8212C15.8663 11.8178 15.6247 11.891 15.5249 11.9238C15.5312 11.8859 15.6083 11.4112 15.6083 11.4112C15.9071 11.3236 16.104 11.2907 16.3255 11.2907C16.8407 11.2907 17.1134 11.5218 17.1129 11.9587C17.1139 12.0758 17.0945 12.2203 17.0643 12.4102C17.0125 12.7403 16.9006 13.4476 16.8854 13.6201ZM10.1042 13.5854C9.94007 13.6371 9.81213 13.6593 9.67343 13.6593C9.36687 13.6593 9.19958 13.4831 9.19958 13.1587C9.19521 13.0581 9.24367 12.7932 9.28173 12.5514C9.31635 12.3386 9.54173 10.9967 9.54173 10.9967H10.1378L10.0682 11.3416H10.4282L10.3468 11.8891H9.98555C9.91632 12.3225 9.81773 12.8622 9.8166 12.9338C9.8166 13.0512 9.87927 13.1025 10.0218 13.1025C10.0902 13.1025 10.1431 13.0955 10.1835 13.0809L10.1042 13.5854ZM11.9316 13.567C11.7269 13.6295 11.5293 13.6598 11.3199 13.6593C10.6528 13.6586 10.305 13.3102 10.305 12.6429C10.305 11.8641 10.7474 11.2907 11.348 11.2907C11.8394 11.2907 12.1533 11.6117 12.1533 12.1152C12.1533 12.2822 12.1317 12.4453 12.0798 12.6756H10.8929C10.8528 13.0061 11.0643 13.1438 11.411 13.1438C11.6243 13.1438 11.8167 13.0998 12.0307 13.0003L11.9316 13.567ZM11.5966 12.2162C11.5999 12.1687 11.6598 11.8095 11.3193 11.8095C11.1294 11.8095 10.9937 11.9543 10.9384 12.2162H11.5966ZM7.79909 12.0618C7.79909 12.3501 7.93881 12.5488 8.25573 12.698C8.49856 12.8122 8.53613 12.846 8.53613 12.9494C8.53613 13.0915 8.42906 13.1556 8.19176 13.1556C8.01293 13.1556 7.84653 13.1277 7.65459 13.0657C7.65459 13.0657 7.57573 13.5679 7.57213 13.5919C7.70844 13.6216 7.82998 13.6492 8.19613 13.6593C8.82881 13.6593 9.12099 13.4184 9.12099 12.8978C9.12099 12.5847 8.99869 12.401 8.69832 12.2629C8.4469 12.1475 8.41804 12.1217 8.41804 12.0153C8.41804 11.8921 8.51767 11.8293 8.71152 11.8293C8.82921 11.8293 8.98998 11.8418 9.14229 11.8635L9.22767 11.3351C9.07241 11.3105 8.83703 11.2907 8.69998 11.2907C8.02921 11.2907 7.79702 11.6411 7.79909 12.0618ZM14.848 11.3506C15.0146 11.3506 15.1698 11.3943 15.3838 11.502L15.4819 10.8939C15.394 10.8594 15.0848 10.657 14.8229 10.657C14.4216 10.657 14.0824 10.8561 13.8438 11.1847C13.4958 11.0694 13.3528 11.3024 13.1774 11.5344L13.0216 11.5707C13.0334 11.4943 13.0441 11.4184 13.0405 11.3416H12.4899C12.4146 12.0467 12.2813 12.761 12.1769 13.467L12.1497 13.6201H12.7496C12.8497 12.9695 12.9046 12.553 12.9379 12.2711L13.1638 12.1454C13.1975 12.0199 13.3032 11.9775 13.5151 11.9826C13.4866 12.1367 13.4723 12.2931 13.4725 12.4498C13.4725 13.1952 13.8747 13.6593 14.5202 13.6593C14.6865 13.6593 14.8292 13.6374 15.0501 13.5775L15.1557 12.9388C14.9569 13.0366 14.7938 13.0826 14.6461 13.0826C14.2975 13.0826 14.0866 12.8254 14.0866 12.4001C14.0866 11.7831 14.4003 11.3506 14.848 11.3506Z" fill="black"/>
<path d="M5.69893 13.4536H5.0992L5.4429 11.3002L4.67597 13.4536H4.2673L4.21677 11.3125L3.85576 13.4536H3.29443L3.7633 10.6523H4.62545L4.6497 12.3866L5.23136 10.6523H6.16265L5.69893 13.4536Z" fill="white"/>
<path d="M19.9238 10.8184L19.7909 11.6278C19.6269 11.4121 19.4508 11.2559 19.2182 11.2559C18.9156 11.2559 18.6403 11.4853 18.46 11.8229C18.209 11.7708 17.9493 11.6825 17.9493 11.6825L17.9492 11.6845C17.9695 11.4958 17.9775 11.3807 17.9757 11.3416H17.425C17.35 12.0467 17.2167 12.7609 17.1124 13.4669L17.085 13.6201H17.6847C17.7657 13.094 17.8278 12.6572 17.8734 12.3108C18.0783 12.1257 18.1809 11.9641 18.3879 11.9749C18.2963 12.1966 18.2425 12.4519 18.2425 12.7139C18.2425 13.2835 18.5307 13.6593 18.9667 13.6593C19.1864 13.6593 19.355 13.5835 19.5195 13.4079L19.4914 13.6197H20.0586L20.5152 10.8184H19.9238ZM19.1739 13.0935C18.9698 13.0935 18.8668 12.9425 18.8668 12.6444C18.8668 12.1966 19.0597 11.879 19.3318 11.879C19.5378 11.879 19.6493 12.036 19.6493 12.3254C19.6493 12.7771 19.4533 13.0935 19.1739 13.0935Z" fill="black"/>
<path d="M7.17509 12.4388C7.11226 12.4316 7.08445 12.4296 7.04137 12.4296C6.70149 12.4296 6.52955 12.5462 6.52955 12.7763C6.52955 12.9179 6.61355 13.0085 6.74432 13.0085C6.98878 13.0085 7.16481 12.7759 7.17509 12.4388ZM7.61137 13.4537H7.11457L7.12586 13.2179C6.97445 13.4042 6.77201 13.4933 6.49752 13.4933C6.17238 13.4933 5.94971 13.2395 5.94971 12.8709C5.94971 12.3161 6.33712 11.9927 7.00251 11.9927C7.07048 11.9927 7.15765 11.9988 7.24675 12.0102C7.26534 11.9351 7.2702 11.903 7.2702 11.8623C7.2702 11.7113 7.16586 11.6552 6.88571 11.6552C6.59226 11.6519 6.35048 11.7251 6.25097 11.7574C6.25725 11.7197 6.33405 11.2455 6.33405 11.2455C6.63278 11.1576 6.83008 11.1246 7.05161 11.1246C7.56663 11.1246 7.83943 11.3559 7.83894 11.7924C7.83983 11.91 7.82032 12.0543 7.7902 12.244C7.73829 12.574 7.62651 13.2817 7.61137 13.4537ZM15.6538 10.7278L15.5556 11.336C15.3418 11.2285 15.1864 11.1846 15.02 11.1846C14.5723 11.1846 14.2585 11.6172 14.2585 12.2341C14.2585 12.6593 14.4695 12.9166 14.818 12.9166C14.9656 12.9166 15.1286 12.8706 15.3273 12.7726L15.2221 13.4111C15.001 13.4714 14.8585 13.4933 14.692 13.4933C14.0466 13.4933 13.6444 13.0292 13.6444 12.2838C13.6444 11.2823 14.2 10.5823 14.9948 10.5823C15.2565 10.5823 15.5659 10.6933 15.6538 10.7278ZM16.6213 12.4388C16.5585 12.4316 16.5308 12.4296 16.4876 12.4296C16.1478 12.4296 15.9757 12.5462 15.9757 12.7763C15.9757 12.9179 16.0597 13.0085 16.1906 13.0085C16.4348 13.0085 16.611 12.7759 16.6213 12.4388ZM17.0576 13.4537H16.5606L16.572 13.2179C16.4205 13.4042 16.2182 13.4933 15.9437 13.4933C15.6187 13.4933 15.3959 13.2395 15.3959 12.8709C15.3959 12.3161 15.7834 11.9927 16.4486 11.9927C16.5167 11.9927 16.6037 11.9988 16.6929 12.0102C16.7114 11.9351 16.7164 11.903 16.7164 11.8623C16.7164 11.7113 16.612 11.6552 16.3319 11.6552C16.0386 11.6519 15.7966 11.7251 15.6972 11.7574C15.7034 11.7197 15.7804 11.2455 15.7804 11.2455C16.0791 11.1576 16.2762 11.1246 16.4978 11.1246C17.0129 11.1246 17.2856 11.3559 17.2849 11.7924C17.286 11.91 17.2666 12.0543 17.2364 12.244C17.1846 12.574 17.0725 13.2817 17.0576 13.4537ZM10.2763 13.4192C10.1121 13.4709 9.98414 13.4933 9.84555 13.4933C9.539 13.4933 9.37171 13.3171 9.37171 12.9928C9.36746 12.8919 9.41592 12.6273 9.45402 12.3855C9.48848 12.1724 9.71389 10.8306 9.71389 10.8306H10.3098L10.2403 11.1756H10.5462L10.4648 11.723H10.1579C10.0886 12.1565 9.98977 12.6958 9.98875 12.7675C9.98875 12.8854 10.0516 12.9362 10.194 12.9362C10.2623 12.9362 10.3152 12.9296 10.3557 12.915L10.2763 13.4192ZM12.1038 13.401C11.8992 13.4636 11.7013 13.4937 11.4921 13.4933C10.8249 13.4927 10.4771 13.1442 10.4771 12.4769C10.4771 11.6978 10.9196 11.1246 11.5202 11.1246C12.0116 11.1246 12.3254 11.4455 12.3254 11.9492C12.3254 12.1164 12.3039 12.2795 12.2521 12.5096H11.0652C11.025 12.8401 11.2365 12.9779 11.5832 12.9779C11.7965 12.9779 11.989 12.9338 12.2028 12.8341L12.1038 13.401ZM11.7686 12.0499C11.7722 12.0026 11.832 11.6432 11.4913 11.6432C11.3016 11.6432 11.1658 11.7883 11.1105 12.0499H11.7686ZM7.97109 11.8959C7.97109 12.1841 8.11085 12.3826 8.42777 12.5321C8.67057 12.6462 8.70814 12.6801 8.70814 12.7834C8.70814 12.9255 8.60097 12.9896 8.36392 12.9896C8.18494 12.9896 8.01854 12.9617 7.82648 12.8998C7.82648 12.8998 7.74789 13.4019 7.74432 13.4259C7.88032 13.4557 8.00198 13.4828 8.36814 13.4933C9.00097 13.4933 9.29303 13.2524 9.29303 12.7319C9.29303 12.4187 9.17085 12.235 8.87032 12.0969C8.61903 11.9813 8.58995 11.9559 8.58995 11.8494C8.58995 11.7263 8.6898 11.663 8.88352 11.663C9.00109 11.663 9.16186 11.6759 9.31441 11.6976L9.39968 11.169C9.24457 11.1443 9.00918 11.1246 8.87211 11.1246C8.20121 11.1246 7.96918 11.4747 7.97109 11.8959ZM20.2311 13.4537H19.6638L19.692 13.2416C19.5275 13.4175 19.3589 13.4933 19.1392 13.4933C18.7032 13.4933 18.4152 13.1175 18.4152 12.5479C18.4152 11.7901 18.862 11.1512 19.3908 11.1512C19.6234 11.1512 19.7995 11.2462 19.9633 11.4619L20.0964 10.6524H20.6878L20.2311 13.4537ZM19.3466 12.9273C19.6259 12.9273 19.822 12.6109 19.822 12.1595C19.822 11.8701 19.7103 11.7131 19.5043 11.7131C19.2324 11.7131 19.0392 12.0305 19.0392 12.4785C19.0392 12.7765 19.1425 12.9273 19.3466 12.9273ZM17.5976 11.1756C17.5226 11.8808 17.3892 12.595 17.2849 13.3006L17.2575 13.4537H17.8572C18.0717 12.0606 18.1236 11.7886 18.46 11.8227C18.5136 11.5376 18.6132 11.2878 18.6876 11.1618C18.4364 11.1095 18.2962 11.2514 18.1126 11.521C18.1271 11.4045 18.1536 11.2913 18.1484 11.1756H17.5976ZM12.6616 11.1756C12.5864 11.8808 12.453 12.595 12.3488 13.3006L12.3215 13.4537H12.9215C13.1357 12.0606 13.1875 11.7886 13.5236 11.8227C13.5775 11.5376 13.6772 11.2878 13.7513 11.1618C13.5004 11.1095 13.36 11.2514 13.1766 11.521C13.1911 11.4045 13.2174 11.2913 13.2124 11.1756H12.6616ZM20.4945 13.2754C20.4945 13.1765 20.5744 13.0969 20.6729 13.0969C20.7712 13.0968 20.8511 13.1765 20.8512 13.2749V13.2754C20.8512 13.3738 20.7713 13.4537 20.6729 13.4537C20.5744 13.4537 20.4946 13.3738 20.4945 13.2754ZM20.6729 13.4109C20.7477 13.4109 20.8084 13.3503 20.8084 13.2755V13.2754C20.8084 13.2006 20.7478 13.1398 20.673 13.1398H20.6729C20.598 13.1398 20.5372 13.2005 20.5372 13.2754C20.5373 13.3502 20.598 13.4109 20.6729 13.4109ZM20.6488 13.3534H20.6122V13.1969H20.6785C20.6922 13.1969 20.7064 13.1972 20.7184 13.2047C20.7312 13.2134 20.7385 13.2283 20.7385 13.2439C20.7385 13.2616 20.7281 13.2782 20.7112 13.2845L20.7401 13.3533H20.6995L20.6755 13.2915H20.6488V13.3533V13.3534ZM20.6488 13.2647H20.6689C20.6764 13.2647 20.6847 13.2653 20.6913 13.2617C20.6973 13.2578 20.7004 13.2506 20.7004 13.2436C20.7001 13.2371 20.6968 13.2312 20.6916 13.2275C20.6853 13.2239 20.6749 13.2249 20.6681 13.2249H20.6487L20.6488 13.2647Z" fill="white"/>
</g>
<defs>
<clipPath id="clip0_3_355">
<rect width="24" height="24" fill="white"/>
</clipPath>
</defs>
</svg>
