<svg width="24" height="25" viewBox="0 0 24 25" fill="none" xmlns="http://www.w3.org/2000/svg">
<path d="M0.5 8.49161V2.01559C0.501934 1.61931 0.661111 1.23973 0.943002 0.960049L0.943008 0.960055L0.945116 0.957938C1.22536 0.676549 1.60609 0.517314 2.00397 0.515381H8.47813C9.25057 0.56002 9.98502 0.864284 10.562 1.37845L22.3047 13.0991H22.1408L23.1445 13.9757C23.289 14.1019 23.3956 14.2654 23.4527 14.4481C23.5099 14.6307 23.5153 14.8256 23.4685 15.0112L23.9533 15.1335L23.4685 15.0112C23.4217 15.1967 23.3243 15.3659 23.1872 15.4999C23.05 15.6339 22.8782 15.7276 22.6909 15.7705L22.6739 15.7744L22.6573 15.7794L17.8805 17.2288L17.8637 17.2338L17.8474 17.2401C17.7134 17.2912 17.5917 17.37 17.4902 17.4713L17.8434 17.8252L17.4902 17.4713C17.3886 17.5726 17.3096 17.6942 17.2583 17.8282L17.2516 17.8457L17.2462 17.8636L15.7942 22.7114L15.794 22.7113L15.7904 22.7247C15.7393 22.9141 15.6401 23.0872 15.5023 23.2272C15.3738 23.3577 15.2158 23.4554 15.0417 23.5121C14.9752 23.5176 14.9084 23.5162 14.8421 23.5081L14.8166 23.5049L14.7909 23.5044C14.6372 23.5014 14.4858 23.4677 14.3454 23.4055C14.205 23.3432 14.0785 23.2536 13.9735 23.1419L13.968 23.1361L13.9624 23.1305L1.36131 10.5631C0.836766 9.99647 0.531523 9.26213 0.5 8.49161ZM4.89491 7.67077C5.22617 7.88932 5.61496 8.00455 6.01186 8.00192C6.53794 7.99843 7.04167 7.7883 7.41395 7.41671C7.78627 7.04509 7.99715 6.54188 8.00065 6.01594C8.0033 5.61919 7.88766 5.23068 7.66856 4.89983C7.44947 4.569 7.13686 4.31081 6.77058 4.15796C6.40431 4.0051 6.00083 3.96444 5.6114 4.04108C5.22197 4.11773 4.86404 4.30826 4.58317 4.5886C4.3023 4.86894 4.11118 5.22644 4.03429 5.61569C3.95739 6.00494 3.99821 6.40822 4.15152 6.7742C4.30482 7.14017 4.56364 7.45222 4.89491 7.67077Z" stroke="#11375C"/>
</svg>
