<svg width="24" height="24" viewBox="0 0 24 24" fill="none" xmlns="http://www.w3.org/2000/svg">
<g clip-path="url(#clip0_3_351)">
<path d="M24 4.30762H0V19.6922H24V4.30762Z" fill="#0E4595"/>
<path d="M9.02144 15.0379L10.0479 9.0145H11.6898L10.6625 15.0379H9.02144ZM16.5941 9.14434C16.2688 9.02231 15.7591 8.89136 15.1226 8.89136C13.5003 8.89136 12.3575 9.70828 12.3478 10.8791C12.3386 11.7447 13.1637 12.2275 13.7864 12.5156C14.4255 12.8109 14.6403 12.9991 14.6373 13.2628C14.6332 13.6665 14.1269 13.851 13.655 13.851C12.9979 13.851 12.6488 13.7597 12.1096 13.5348L11.898 13.4391L11.6676 14.7875C12.0511 14.9556 12.7602 15.1013 13.4965 15.1088C15.2223 15.1088 16.3426 14.3013 16.3554 13.0509C16.3615 12.3657 15.9241 11.8443 14.9769 11.4144C14.4031 11.1358 14.0516 10.9498 14.0553 10.6677C14.0553 10.4173 14.3528 10.1495 14.9956 10.1495C15.5325 10.1412 15.9214 10.2583 16.2244 10.3803L16.3715 10.4498L16.5941 9.14434ZM20.819 9.0144H19.5503C19.1573 9.0144 18.8632 9.1217 18.6906 9.51391L16.2523 15.0339H17.9763C17.9763 15.0339 18.2582 14.2917 18.3219 14.1287C18.5104 14.1287 20.1852 14.1313 20.4246 14.1313C20.4737 14.3422 20.6243 15.0339 20.6243 15.0339H22.1478L20.819 9.01422V9.0144ZM18.8061 12.9039C18.9419 12.5569 19.4603 11.2202 19.4603 11.2202C19.4505 11.2362 19.595 10.8714 19.6779 10.6453L19.7889 11.1646C19.7889 11.1646 20.1033 12.6024 20.169 12.9039H18.8061ZM7.62766 9.0144L6.02027 13.1221L5.84898 12.2873C5.54975 11.3251 4.61744 10.2826 3.5752 9.76062L5.04492 15.0283L6.78203 15.0263L9.36677 9.01434H7.62766" fill="white"/>
<path d="M4.52042 9.01404H1.873L1.85205 9.13936C3.91168 9.63795 5.27451 10.8428 5.84036 12.2904L5.26467 9.52244C5.16528 9.14105 4.87707 9.02724 4.52048 9.01392" fill="#F2AE14"/>
</g>
<defs>
<clipPath id="clip0_3_351">
<rect width="24" height="24" fill="white"/>
</clipPath>
</defs>
</svg>
